<mxfile host="Electron" modified="2024-04-01T23:33:44.300Z" agent="Mozilla/5.0 (Windows NT 10.0; Win64; x64) AppleWebKit/537.36 (KHTML, like Gecko) draw.io/24.0.4 Chrome/120.0.6099.109 Electron/28.1.0 Safari/537.36" etag="lGidkA3ukonlNhMBx0Ke" version="24.0.4" type="device" pages="3">
  <diagram id="CuW5EMhFp65Dtcfqk80m" name="Notification">
    <mxGraphModel dx="2074" dy="836" grid="1" gridSize="10" guides="1" tooltips="1" connect="1" arrows="1" fold="1" page="1" pageScale="1" pageWidth="827" pageHeight="1169" math="0" shadow="0">
      <root>
        <mxCell id="0" />
        <mxCell id="1" parent="0" />
        <mxCell id="5wfrirA5lQJIL8gRu9rl-1" value="Notificações" style="ellipse;whiteSpace=wrap;html=1;fillColor=#fff2cc;strokeColor=#d6b656;rounded=1;" parent="1" vertex="1">
          <mxGeometry y="140" width="120" height="80" as="geometry" />
        </mxCell>
        <mxCell id="5wfrirA5lQJIL8gRu9rl-2" value="Responsabilidade" style="whiteSpace=wrap;html=1;aspect=fixed;align=center;fillColor=#fff2cc;strokeColor=#d6b656;rounded=1;" parent="1" vertex="1">
          <mxGeometry y="220" width="120" height="120" as="geometry" />
        </mxCell>
        <mxCell id="5wfrirA5lQJIL8gRu9rl-4" value="Commands" style="swimlane;whiteSpace=wrap;html=1;startSize=23;fillColor=#fff2cc;strokeColor=#d6b656;rounded=1;" parent="1" vertex="1">
          <mxGeometry x="160" y="140" width="350" height="200" as="geometry" />
        </mxCell>
        <mxCell id="5wfrirA5lQJIL8gRu9rl-5" value="Event -&amp;nbsp;Publish" style="swimlane;whiteSpace=wrap;html=1;startSize=23;fillColor=#fff2cc;strokeColor=#d6b656;rounded=1;" parent="1" vertex="1">
          <mxGeometry x="560" y="140" width="200" height="200" as="geometry" />
        </mxCell>
        <mxCell id="y3Tbk5xLdZPs3ExJFCWX-3" value="NotificationTwilioEvent" style="rounded=1;whiteSpace=wrap;html=1;" parent="5wfrirA5lQJIL8gRu9rl-5" vertex="1">
          <mxGeometry x="10" y="40" width="180" height="40" as="geometry" />
        </mxCell>
        <mxCell id="Q2advUi16yEJOzIkkpKW-1" value="&lt;font style=&quot;font-size: 18px;&quot;&gt;Definir&lt;br&gt;Papeis e responsabilidades para os contextos delimitados&lt;/font&gt;" style="rounded=1;whiteSpace=wrap;html=1;" parent="1" vertex="1">
          <mxGeometry x="1" y="20" width="994" height="60" as="geometry" />
        </mxCell>
        <mxCell id="UqJUo6p6nOruBVwJ9Iqc-2" style="edgeStyle=orthogonalEdgeStyle;rounded=0;orthogonalLoop=1;jettySize=auto;html=1;strokeWidth=3;fillColor=#fff2cc;strokeColor=#d6b656;" edge="1" parent="1" source="cm9BiZ39NTBRgM7-DL-o-4" target="y3Tbk5xLdZPs3ExJFCWX-3">
          <mxGeometry relative="1" as="geometry" />
        </mxCell>
        <mxCell id="cm9BiZ39NTBRgM7-DL-o-4" value="CreateNotificationWhatsAppCommand" style="rounded=1;whiteSpace=wrap;html=1;" parent="1" vertex="1">
          <mxGeometry x="170" y="180" width="330" height="40" as="geometry" />
        </mxCell>
        <mxCell id="UqJUo6p6nOruBVwJ9Iqc-3" style="edgeStyle=orthogonalEdgeStyle;rounded=0;orthogonalLoop=1;jettySize=auto;html=1;strokeWidth=3;fillColor=#fff2cc;strokeColor=#d6b656;" edge="1" parent="1" source="cm9BiZ39NTBRgM7-DL-o-5" target="y3Tbk5xLdZPs3ExJFCWX-4">
          <mxGeometry relative="1" as="geometry" />
        </mxCell>
        <mxCell id="cm9BiZ39NTBRgM7-DL-o-5" value="CreateNotificationSendGridEmailCommand" style="rounded=1;whiteSpace=wrap;html=1;" parent="1" vertex="1">
          <mxGeometry x="170" y="230" width="330" height="40" as="geometry" />
        </mxCell>
        <mxCell id="UqJUo6p6nOruBVwJ9Iqc-4" style="edgeStyle=orthogonalEdgeStyle;rounded=0;orthogonalLoop=1;jettySize=auto;html=1;strokeWidth=3;fillColor=#fff2cc;strokeColor=#d6b656;" edge="1" parent="1" source="cm9BiZ39NTBRgM7-DL-o-6" target="y3Tbk5xLdZPs3ExJFCWX-4">
          <mxGeometry relative="1" as="geometry" />
        </mxCell>
        <mxCell id="cm9BiZ39NTBRgM7-DL-o-6" value="CreateNotificationSMSCommand" style="rounded=1;whiteSpace=wrap;html=1;" parent="1" vertex="1">
          <mxGeometry x="170" y="280" width="330" height="40" as="geometry" />
        </mxCell>
        <mxCell id="y3Tbk5xLdZPs3ExJFCWX-1" value="Events -&amp;nbsp;Subscribe" style="swimlane;whiteSpace=wrap;html=1;startSize=23;fillColor=#fff2cc;strokeColor=#d6b656;rounded=1;" parent="1" vertex="1">
          <mxGeometry x="790" y="140" width="200" height="200" as="geometry" />
        </mxCell>
        <mxCell id="y3Tbk5xLdZPs3ExJFCWX-5" value="SendGridEmailConsumer" style="rounded=1;whiteSpace=wrap;html=1;" parent="y3Tbk5xLdZPs3ExJFCWX-1" vertex="1">
          <mxGeometry x="10" y="40" width="180" height="40" as="geometry" />
        </mxCell>
        <mxCell id="y3Tbk5xLdZPs3ExJFCWX-6" value="TwilioSMSConsumer" style="rounded=1;whiteSpace=wrap;html=1;" parent="y3Tbk5xLdZPs3ExJFCWX-1" vertex="1">
          <mxGeometry x="10" y="90" width="180" height="40" as="geometry" />
        </mxCell>
        <mxCell id="y3Tbk5xLdZPs3ExJFCWX-4" value="NotificationEmailEvent" style="rounded=1;whiteSpace=wrap;html=1;" parent="1" vertex="1">
          <mxGeometry x="570" y="230" width="180" height="40" as="geometry" />
        </mxCell>
        <mxCell id="y3Tbk5xLdZPs3ExJFCWX-7" value="TwilioWhatsAppConsumer" style="rounded=1;whiteSpace=wrap;html=1;" parent="1" vertex="1">
          <mxGeometry x="800" y="280" width="180" height="40" as="geometry" />
        </mxCell>
        <mxCell id="tagst_QHt4aWJKqdPhMC-5" style="edgeStyle=orthogonalEdgeStyle;rounded=0;orthogonalLoop=1;jettySize=auto;html=1;strokeWidth=3;fillColor=#d5e8d4;strokeColor=#82b366;" edge="1" parent="1" source="tagst_QHt4aWJKqdPhMC-1" target="tagst_QHt4aWJKqdPhMC-4">
          <mxGeometry relative="1" as="geometry" />
        </mxCell>
        <mxCell id="tagst_QHt4aWJKqdPhMC-1" value="User" style="shape=umlActor;verticalLabelPosition=bottom;verticalAlign=top;html=1;outlineConnect=0;fillColor=#d5e8d4;strokeColor=#82b366;" vertex="1" parent="1">
          <mxGeometry x="45" y="460" width="75" height="140" as="geometry" />
        </mxCell>
        <mxCell id="tagst_QHt4aWJKqdPhMC-7" value="" style="edgeStyle=orthogonalEdgeStyle;rounded=0;orthogonalLoop=1;jettySize=auto;html=1;fillColor=#d5e8d4;strokeColor=#82b366;strokeWidth=3;" edge="1" parent="1" source="tagst_QHt4aWJKqdPhMC-4" target="tagst_QHt4aWJKqdPhMC-6">
          <mxGeometry relative="1" as="geometry" />
        </mxCell>
        <mxCell id="tagst_QHt4aWJKqdPhMC-10" value="" style="edgeStyle=orthogonalEdgeStyle;rounded=0;orthogonalLoop=1;jettySize=auto;html=1;fillColor=#d5e8d4;strokeColor=#82b366;strokeWidth=3;" edge="1" parent="1" source="tagst_QHt4aWJKqdPhMC-4" target="tagst_QHt4aWJKqdPhMC-9">
          <mxGeometry relative="1" as="geometry" />
        </mxCell>
        <mxCell id="tagst_QHt4aWJKqdPhMC-4" value="ENotificationType" style="rhombus;whiteSpace=wrap;html=1;fillColor=#d5e8d4;strokeColor=#82b366;" vertex="1" parent="1">
          <mxGeometry x="360" y="440" width="190" height="80" as="geometry" />
        </mxCell>
        <mxCell id="tagst_QHt4aWJKqdPhMC-6" value="NotificationTwilioEvent" style="whiteSpace=wrap;html=1;fillColor=#d5e8d4;strokeColor=#82b366;" vertex="1" parent="1">
          <mxGeometry x="662" y="460" width="165" height="60" as="geometry" />
        </mxCell>
        <mxCell id="tagst_QHt4aWJKqdPhMC-9" value="NotificationEmailEvent" style="whiteSpace=wrap;html=1;fillColor=#d5e8d4;strokeColor=#82b366;" vertex="1" parent="1">
          <mxGeometry x="395" y="610" width="165" height="60" as="geometry" />
        </mxCell>
        <mxCell id="tagst_QHt4aWJKqdPhMC-11" value="SMS e&amp;nbsp;WhatsApp&amp;nbsp;" style="text;html=1;align=center;verticalAlign=middle;resizable=0;points=[];autosize=1;strokeColor=none;fillColor=none;" vertex="1" parent="1">
          <mxGeometry x="530" y="448" width="120" height="30" as="geometry" />
        </mxCell>
        <mxCell id="tagst_QHt4aWJKqdPhMC-12" value="Email" style="text;html=1;align=center;verticalAlign=middle;resizable=0;points=[];autosize=1;strokeColor=none;fillColor=none;" vertex="1" parent="1">
          <mxGeometry x="455" y="528" width="50" height="30" as="geometry" />
        </mxCell>
      </root>
    </mxGraphModel>
  </diagram>
  <diagram id="B9nYLarbnk_1xlqJJsz-" name="User">
    <mxGraphModel dx="2074" dy="836" grid="1" gridSize="10" guides="1" tooltips="1" connect="1" arrows="1" fold="1" page="1" pageScale="1" pageWidth="827" pageHeight="1169" math="0" shadow="0">
      <root>
        <mxCell id="0" />
        <mxCell id="1" parent="0" />
        <mxCell id="zbco2m4FSmxHahQW4bh5-1" value="&lt;font style=&quot;font-size: 18px;&quot;&gt;Definir&lt;br&gt;Papeis e responsabilidades para os contextos delimitados&lt;/font&gt;" style="rounded=1;whiteSpace=wrap;html=1;" parent="1" vertex="1">
          <mxGeometry x="20" y="17" width="1550" height="60" as="geometry" />
        </mxCell>
        <mxCell id="UvrLj_Uh51BwXQqP9Dx4-1" value="User" style="ellipse;whiteSpace=wrap;html=1;fillColor=#d5e8d4;strokeColor=#82b366;rounded=1;" parent="1" vertex="1">
          <mxGeometry y="160" width="120" height="80" as="geometry" />
        </mxCell>
        <mxCell id="UvrLj_Uh51BwXQqP9Dx4-2" value="Criação de usuários" style="whiteSpace=wrap;html=1;aspect=fixed;align=center;fillColor=#d5e8d4;strokeColor=#82b366;rounded=1;" parent="1" vertex="1">
          <mxGeometry y="240" width="120" height="120" as="geometry" />
        </mxCell>
        <mxCell id="UvrLj_Uh51BwXQqP9Dx4-3" value="Queries" style="swimlane;whiteSpace=wrap;html=1;fillColor=#d5e8d4;strokeColor=#82b366;rounded=1;" parent="1" vertex="1">
          <mxGeometry x="150" y="160" width="200" height="200" as="geometry" />
        </mxCell>
        <mxCell id="UvrLj_Uh51BwXQqP9Dx4-4" value="GetUserQuery" style="rounded=1;whiteSpace=wrap;html=1;" parent="UvrLj_Uh51BwXQqP9Dx4-3" vertex="1">
          <mxGeometry x="10" y="40" width="180" height="40" as="geometry" />
        </mxCell>
        <mxCell id="UvrLj_Uh51BwXQqP9Dx4-7" value="Events" style="swimlane;whiteSpace=wrap;html=1;startSize=23;fillColor=#d5e8d4;strokeColor=#82b366;rounded=1;" parent="1" vertex="1">
          <mxGeometry x="920" y="160" width="200" height="200" as="geometry" />
        </mxCell>
        <mxCell id="UvrLj_Uh51BwXQqP9Dx4-8" value="GetUserByIdQuery" style="rounded=1;whiteSpace=wrap;html=1;" parent="1" vertex="1">
          <mxGeometry x="160" y="250" width="180" height="40" as="geometry" />
        </mxCell>
        <mxCell id="HGr_XJyP1F0s3EKC6TdU-1" value="UserCreatedEvent" style="rounded=1;whiteSpace=wrap;html=1;" parent="1" vertex="1">
          <mxGeometry x="930" y="200" width="180" height="40" as="geometry" />
        </mxCell>
        <mxCell id="HGr_XJyP1F0s3EKC6TdU-2" value="UserDeletedEvent" style="rounded=1;whiteSpace=wrap;html=1;" parent="1" vertex="1">
          <mxGeometry x="930" y="250" width="180" height="40" as="geometry" />
        </mxCell>
        <mxCell id="HGr_XJyP1F0s3EKC6TdU-3" value="UserUpdatedEvent" style="rounded=1;whiteSpace=wrap;html=1;" parent="1" vertex="1">
          <mxGeometry x="930" y="300" width="180" height="40" as="geometry" />
        </mxCell>
        <mxCell id="nAoJFdjLmNfq3l4Kq4j5-7" value="Commands" style="swimlane;whiteSpace=wrap;html=1;startSize=23;fillColor=#d5e8d4;strokeColor=#82b366;rounded=1;" vertex="1" parent="1">
          <mxGeometry x="370" y="160" width="250" height="615" as="geometry" />
        </mxCell>
        <mxCell id="nAoJFdjLmNfq3l4Kq4j5-8" value="Auth" style="swimlane;whiteSpace=wrap;html=1;startSize=23;fillColor=#f5f5f5;strokeColor=#666666;rounded=1;fontColor=#333333;" vertex="1" parent="nAoJFdjLmNfq3l4Kq4j5-7">
          <mxGeometry x="11" y="40" width="220" height="190" as="geometry" />
        </mxCell>
        <mxCell id="nAoJFdjLmNfq3l4Kq4j5-10" value="AuthCommand" style="rounded=1;whiteSpace=wrap;html=1;" vertex="1" parent="nAoJFdjLmNfq3l4Kq4j5-8">
          <mxGeometry x="20" y="32" width="180" height="40" as="geometry" />
        </mxCell>
        <mxCell id="nAoJFdjLmNfq3l4Kq4j5-15" value="User" style="swimlane;whiteSpace=wrap;html=1;startSize=23;fillColor=#f5f5f5;strokeColor=#666666;rounded=1;fontColor=#333333;" vertex="1" parent="nAoJFdjLmNfq3l4Kq4j5-8">
          <mxGeometry y="215" width="220" height="335" as="geometry" />
        </mxCell>
        <mxCell id="nAoJFdjLmNfq3l4Kq4j5-16" value="CreateUserCommand" style="rounded=1;whiteSpace=wrap;html=1;" vertex="1" parent="nAoJFdjLmNfq3l4Kq4j5-15">
          <mxGeometry x="20" y="30" width="180" height="40" as="geometry" />
        </mxCell>
        <mxCell id="nAoJFdjLmNfq3l4Kq4j5-18" value="UpdateUserCommand" style="rounded=1;whiteSpace=wrap;html=1;" vertex="1" parent="nAoJFdjLmNfq3l4Kq4j5-8">
          <mxGeometry x="20" y="295" width="180" height="40" as="geometry" />
        </mxCell>
        <mxCell id="nAoJFdjLmNfq3l4Kq4j5-19" value="UpdatePasswordUserCommand" style="rounded=1;whiteSpace=wrap;html=1;" vertex="1" parent="nAoJFdjLmNfq3l4Kq4j5-8">
          <mxGeometry x="20" y="345" width="180" height="40" as="geometry" />
        </mxCell>
        <mxCell id="nAoJFdjLmNfq3l4Kq4j5-13" value="AuthResetPasswordCommand" style="rounded=1;whiteSpace=wrap;html=1;" vertex="1" parent="nAoJFdjLmNfq3l4Kq4j5-7">
          <mxGeometry x="31" y="120" width="180" height="40" as="geometry" />
        </mxCell>
        <mxCell id="nAoJFdjLmNfq3l4Kq4j5-14" value="AuthNewPasswordCommand" style="rounded=1;whiteSpace=wrap;html=1;" vertex="1" parent="nAoJFdjLmNfq3l4Kq4j5-7">
          <mxGeometry x="31" y="170" width="180" height="40" as="geometry" />
        </mxCell>
        <mxCell id="nAoJFdjLmNfq3l4Kq4j5-22" value="UpdateEmailUserCommand" style="rounded=1;whiteSpace=wrap;html=1;" vertex="1" parent="1">
          <mxGeometry x="401" y="595" width="180" height="40" as="geometry" />
        </mxCell>
        <mxCell id="nAoJFdjLmNfq3l4Kq4j5-23" value="UpdateRoleUserCommand" style="rounded=1;whiteSpace=wrap;html=1;" vertex="1" parent="1">
          <mxGeometry x="401" y="645" width="180" height="40" as="geometry" />
        </mxCell>
        <mxCell id="nAoJFdjLmNfq3l4Kq4j5-24" value="DeleteUserCommand" style="rounded=1;whiteSpace=wrap;html=1;" vertex="1" parent="1">
          <mxGeometry x="401" y="695" width="180" height="40" as="geometry" />
        </mxCell>
        <mxCell id="nAoJFdjLmNfq3l4Kq4j5-37" style="edgeStyle=orthogonalEdgeStyle;rounded=0;orthogonalLoop=1;jettySize=auto;html=1;entryX=0;entryY=0.5;entryDx=0;entryDy=0;strokeWidth=3;fillColor=#f5f5f5;strokeColor=#666666;" edge="1" parent="1" source="nAoJFdjLmNfq3l4Kq4j5-16" target="HGr_XJyP1F0s3EKC6TdU-1">
          <mxGeometry relative="1" as="geometry" />
        </mxCell>
        <mxCell id="nAoJFdjLmNfq3l4Kq4j5-38" style="edgeStyle=orthogonalEdgeStyle;rounded=0;orthogonalLoop=1;jettySize=auto;html=1;strokeWidth=3;fillColor=#f5f5f5;strokeColor=#666666;" edge="1" parent="1" source="nAoJFdjLmNfq3l4Kq4j5-18" target="HGr_XJyP1F0s3EKC6TdU-3">
          <mxGeometry relative="1" as="geometry">
            <Array as="points">
              <mxPoint x="950" y="515" />
            </Array>
          </mxGeometry>
        </mxCell>
        <mxCell id="nAoJFdjLmNfq3l4Kq4j5-39" style="edgeStyle=orthogonalEdgeStyle;rounded=0;orthogonalLoop=1;jettySize=auto;html=1;strokeWidth=3;fillColor=#f5f5f5;strokeColor=#666666;" edge="1" parent="1" source="nAoJFdjLmNfq3l4Kq4j5-19" target="HGr_XJyP1F0s3EKC6TdU-3">
          <mxGeometry relative="1" as="geometry">
            <Array as="points">
              <mxPoint x="1000" y="565" />
            </Array>
          </mxGeometry>
        </mxCell>
        <mxCell id="nAoJFdjLmNfq3l4Kq4j5-40" style="edgeStyle=orthogonalEdgeStyle;rounded=0;orthogonalLoop=1;jettySize=auto;html=1;entryX=0.711;entryY=1.075;entryDx=0;entryDy=0;entryPerimeter=0;strokeWidth=3;fillColor=#f5f5f5;strokeColor=#666666;" edge="1" parent="1" source="nAoJFdjLmNfq3l4Kq4j5-22" target="HGr_XJyP1F0s3EKC6TdU-3">
          <mxGeometry relative="1" as="geometry" />
        </mxCell>
        <mxCell id="nAoJFdjLmNfq3l4Kq4j5-41" style="edgeStyle=orthogonalEdgeStyle;rounded=0;orthogonalLoop=1;jettySize=auto;html=1;entryX=0.95;entryY=0.95;entryDx=0;entryDy=0;entryPerimeter=0;strokeWidth=3;fillColor=#f5f5f5;strokeColor=#666666;" edge="1" parent="1" source="nAoJFdjLmNfq3l4Kq4j5-23" target="HGr_XJyP1F0s3EKC6TdU-3">
          <mxGeometry relative="1" as="geometry" />
        </mxCell>
        <mxCell id="nAoJFdjLmNfq3l4Kq4j5-43" style="edgeStyle=orthogonalEdgeStyle;rounded=0;orthogonalLoop=1;jettySize=auto;html=1;fillColor=#f8cecc;strokeColor=#b85450;strokeWidth=3;" edge="1" parent="1" source="nAoJFdjLmNfq3l4Kq4j5-24" target="HGr_XJyP1F0s3EKC6TdU-2">
          <mxGeometry relative="1" as="geometry">
            <Array as="points">
              <mxPoint x="1200" y="715" />
              <mxPoint x="1200" y="270" />
            </Array>
          </mxGeometry>
        </mxCell>
        <mxCell id="FKdyLwpNdsEuV8RWlH8g-1" value="Events" style="swimlane;whiteSpace=wrap;html=1;startSize=23;fillColor=#d5e8d4;strokeColor=#82b366;rounded=1;" vertex="1" parent="1">
          <mxGeometry x="1320" y="160" width="200" height="160" as="geometry" />
        </mxCell>
        <mxCell id="FKdyLwpNdsEuV8RWlH8g-2" value="AuthEvent" style="rounded=1;whiteSpace=wrap;html=1;" vertex="1" parent="FKdyLwpNdsEuV8RWlH8g-1">
          <mxGeometry x="10" y="40" width="180" height="40" as="geometry" />
        </mxCell>
        <mxCell id="FKdyLwpNdsEuV8RWlH8g-3" style="edgeStyle=orthogonalEdgeStyle;rounded=0;orthogonalLoop=1;jettySize=auto;html=1;entryX=0;entryY=0.5;entryDx=0;entryDy=0;fillColor=#f5f5f5;strokeColor=#666666;strokeWidth=3;" edge="1" parent="1" source="nAoJFdjLmNfq3l4Kq4j5-10" target="FKdyLwpNdsEuV8RWlH8g-2">
          <mxGeometry relative="1" as="geometry">
            <Array as="points">
              <mxPoint x="640" y="252" />
              <mxPoint x="640" y="100" />
              <mxPoint x="1300" y="100" />
              <mxPoint x="1300" y="220" />
            </Array>
          </mxGeometry>
        </mxCell>
        <mxCell id="FKdyLwpNdsEuV8RWlH8g-5" value="AuthResetEvent" style="rounded=1;whiteSpace=wrap;html=1;" vertex="1" parent="1">
          <mxGeometry x="1330" y="250" width="180" height="40" as="geometry" />
        </mxCell>
        <mxCell id="FKdyLwpNdsEuV8RWlH8g-6" style="edgeStyle=orthogonalEdgeStyle;rounded=0;orthogonalLoop=1;jettySize=auto;html=1;strokeWidth=3;fillColor=#f5f5f5;strokeColor=#666666;" edge="1" parent="1" source="nAoJFdjLmNfq3l4Kq4j5-13" target="FKdyLwpNdsEuV8RWlH8g-5">
          <mxGeometry relative="1" as="geometry">
            <Array as="points">
              <mxPoint x="670" y="300" />
              <mxPoint x="670" y="120" />
              <mxPoint x="1280" y="120" />
              <mxPoint x="1280" y="270" />
            </Array>
          </mxGeometry>
        </mxCell>
        <mxCell id="4xZtOArRsoujXBmgBcos-1" value="User" style="ellipse;whiteSpace=wrap;html=1;fillColor=#dae8fc;strokeColor=#6c8ebf;rounded=1;" vertex="1" parent="1">
          <mxGeometry x="20" y="809" width="120" height="80" as="geometry" />
        </mxCell>
        <mxCell id="4xZtOArRsoujXBmgBcos-15" style="edgeStyle=orthogonalEdgeStyle;rounded=0;orthogonalLoop=1;jettySize=auto;html=1;entryX=0;entryY=0.5;entryDx=0;entryDy=0;strokeWidth=3;fillColor=#dae8fc;strokeColor=#6c8ebf;" edge="1" parent="1" source="4xZtOArRsoujXBmgBcos-6" target="4xZtOArRsoujXBmgBcos-8">
          <mxGeometry relative="1" as="geometry">
            <Array as="points">
              <mxPoint x="245" y="940" />
              <mxPoint x="245" y="910" />
            </Array>
          </mxGeometry>
        </mxCell>
        <mxCell id="4xZtOArRsoujXBmgBcos-6" value="User Aggregate&lt;ul&gt;&lt;li&gt;FirstName&lt;/li&gt;&lt;li&gt;LastName&lt;/li&gt;&lt;li&gt;Gender&lt;/li&gt;&lt;li&gt;Notification&lt;/li&gt;&lt;li&gt;RoleUserAuth&lt;br&gt;&lt;/li&gt;&lt;li&gt;Password&lt;br&gt;&lt;/li&gt;&lt;li&gt;DateOfBirth&lt;br&gt;&lt;/li&gt;&lt;/ul&gt;" style="rounded=1;whiteSpace=wrap;html=1;align=left;fillColor=#dae8fc;strokeColor=#6c8ebf;" vertex="1" parent="1">
          <mxGeometry y="889" width="170" height="180" as="geometry" />
        </mxCell>
        <mxCell id="4xZtOArRsoujXBmgBcos-8" value="Email ValueObject&lt;br&gt;&lt;ul&gt;&lt;li&gt;Address&lt;br&gt;&lt;/li&gt;&lt;/ul&gt;" style="rounded=1;whiteSpace=wrap;html=1;align=left;fillColor=#dae8fc;strokeColor=#6c8ebf;" vertex="1" parent="1">
          <mxGeometry x="320" y="880" width="200" height="60" as="geometry" />
        </mxCell>
        <mxCell id="4xZtOArRsoujXBmgBcos-9" value="PhoneNumber ValueObject&lt;br&gt;&lt;ul&gt;&lt;li&gt;Phone&lt;br&gt;&lt;/li&gt;&lt;/ul&gt;" style="rounded=1;whiteSpace=wrap;html=1;align=left;fillColor=#dae8fc;strokeColor=#6c8ebf;" vertex="1" parent="1">
          <mxGeometry x="320" y="990" width="200" height="90" as="geometry" />
        </mxCell>
        <mxCell id="4xZtOArRsoujXBmgBcos-16" style="edgeStyle=orthogonalEdgeStyle;rounded=0;orthogonalLoop=1;jettySize=auto;html=1;entryX=0.01;entryY=0.589;entryDx=0;entryDy=0;entryPerimeter=0;strokeWidth=3;fillColor=#dae8fc;strokeColor=#6c8ebf;" edge="1" parent="1" source="4xZtOArRsoujXBmgBcos-6" target="4xZtOArRsoujXBmgBcos-9">
          <mxGeometry relative="1" as="geometry">
            <Array as="points">
              <mxPoint x="245" y="1010" />
              <mxPoint x="245" y="1043" />
            </Array>
          </mxGeometry>
        </mxCell>
      </root>
    </mxGraphModel>
  </diagram>
  <diagram id="AZpycT5C3fjyQ_NTyiXn" name="Person">
    <mxGraphModel dx="2074" dy="836" grid="1" gridSize="10" guides="1" tooltips="1" connect="1" arrows="1" fold="1" page="1" pageScale="1" pageWidth="827" pageHeight="1169" math="0" shadow="0">
      <root>
        <mxCell id="0" />
        <mxCell id="1" parent="0" />
        <mxCell id="uYkYqkHDsWnbPAIdgzIU-1" value="Person" style="ellipse;whiteSpace=wrap;html=1;fillColor=#dae8fc;strokeColor=#6c8ebf;rounded=1;" parent="1" vertex="1">
          <mxGeometry y="120" width="120" height="80" as="geometry" />
        </mxCell>
        <mxCell id="uYkYqkHDsWnbPAIdgzIU-2" value="Dados pessoais" style="whiteSpace=wrap;html=1;aspect=fixed;align=center;fillColor=#dae8fc;strokeColor=#6c8ebf;rounded=1;" parent="1" vertex="1">
          <mxGeometry y="200" width="120" height="120" as="geometry" />
        </mxCell>
        <mxCell id="uYkYqkHDsWnbPAIdgzIU-3" value="Queries" style="swimlane;whiteSpace=wrap;html=1;fillColor=#dae8fc;strokeColor=#6c8ebf;rounded=1;" parent="1" vertex="1">
          <mxGeometry x="150" y="120" width="200" height="200" as="geometry" />
        </mxCell>
        <mxCell id="uYkYqkHDsWnbPAIdgzIU-7" value="Events" style="swimlane;whiteSpace=wrap;html=1;startSize=23;fillColor=#dae8fc;strokeColor=#6c8ebf;rounded=1;" parent="1" vertex="1">
          <mxGeometry x="960" y="120" width="200" height="200" as="geometry" />
        </mxCell>
        <mxCell id="meLznbyOK8zg0Ix5pkp5-1" value="CreatePersonCommandEvent" style="rounded=1;whiteSpace=wrap;html=1;" vertex="1" parent="uYkYqkHDsWnbPAIdgzIU-7">
          <mxGeometry x="10" y="40" width="180" height="40" as="geometry" />
        </mxCell>
        <mxCell id="meLznbyOK8zg0Ix5pkp5-2" value="UpdatePersonCommandEvent" style="rounded=1;whiteSpace=wrap;html=1;" vertex="1" parent="uYkYqkHDsWnbPAIdgzIU-7">
          <mxGeometry x="10" y="90" width="180" height="40" as="geometry" />
        </mxCell>
        <mxCell id="LbxbgSbXvP-pDpKZzsnc-1" value="&lt;font style=&quot;font-size: 18px;&quot;&gt;Definir&lt;br&gt;Papeis e responsabilidades para os contextos delimitados&lt;/font&gt;" style="rounded=1;whiteSpace=wrap;html=1;" parent="1" vertex="1">
          <mxGeometry x="20" y="17" width="1180" height="60" as="geometry" />
        </mxCell>
        <mxCell id="LbxbgSbXvP-pDpKZzsnc-2" value="Person" style="ellipse;whiteSpace=wrap;html=1;fillColor=#dae8fc;strokeColor=#6c8ebf;rounded=1;" parent="1" vertex="1">
          <mxGeometry x="20" y="719" width="120" height="80" as="geometry" />
        </mxCell>
        <mxCell id="jI8MqcMx82mhpwU4Yp7n-1" style="edgeStyle=orthogonalEdgeStyle;rounded=0;orthogonalLoop=1;jettySize=auto;html=1;strokeWidth=3;fillColor=#dae8fc;strokeColor=#6c8ebf;" edge="1" parent="1" source="LbxbgSbXvP-pDpKZzsnc-7" target="LbxbgSbXvP-pDpKZzsnc-13">
          <mxGeometry relative="1" as="geometry" />
        </mxCell>
        <mxCell id="GCZ5FImTEvu7AsAl8PyP-1" style="edgeStyle=orthogonalEdgeStyle;rounded=0;orthogonalLoop=1;jettySize=auto;html=1;entryX=0;entryY=0.5;entryDx=0;entryDy=0;strokeWidth=3;fillColor=#dae8fc;strokeColor=#6c8ebf;" edge="1" parent="1" source="LbxbgSbXvP-pDpKZzsnc-7" target="LbxbgSbXvP-pDpKZzsnc-8">
          <mxGeometry relative="1" as="geometry">
            <Array as="points">
              <mxPoint x="246" y="920" />
              <mxPoint x="246" y="1097" />
            </Array>
          </mxGeometry>
        </mxCell>
        <mxCell id="GCZ5FImTEvu7AsAl8PyP-2" style="edgeStyle=orthogonalEdgeStyle;rounded=0;orthogonalLoop=1;jettySize=auto;html=1;entryX=0;entryY=0.5;entryDx=0;entryDy=0;strokeWidth=3;fillColor=#dae8fc;strokeColor=#6c8ebf;" edge="1" parent="1" source="LbxbgSbXvP-pDpKZzsnc-7" target="w_Y-t5pEsR0Due9AIpix-1">
          <mxGeometry relative="1" as="geometry">
            <Array as="points">
              <mxPoint x="150" y="1130" />
              <mxPoint x="245" y="1130" />
              <mxPoint x="245" y="1190" />
            </Array>
          </mxGeometry>
        </mxCell>
        <mxCell id="GCZ5FImTEvu7AsAl8PyP-3" style="edgeStyle=orthogonalEdgeStyle;rounded=0;orthogonalLoop=1;jettySize=auto;html=1;entryX=0;entryY=0.5;entryDx=0;entryDy=0;strokeWidth=3;fillColor=#dae8fc;strokeColor=#6c8ebf;" edge="1" parent="1" source="LbxbgSbXvP-pDpKZzsnc-7" target="w_Y-t5pEsR0Due9AIpix-2">
          <mxGeometry relative="1" as="geometry">
            <Array as="points">
              <mxPoint x="85" y="1170" />
              <mxPoint x="230" y="1170" />
              <mxPoint x="230" y="1315" />
            </Array>
          </mxGeometry>
        </mxCell>
        <mxCell id="LbxbgSbXvP-pDpKZzsnc-7" value="Person Aggregate&lt;ul&gt;&lt;li&gt;CPF&lt;/li&gt;&lt;li&gt;FirstName&lt;/li&gt;&lt;li&gt;LastName&lt;/li&gt;&lt;li&gt;Address&lt;/li&gt;&lt;li&gt;Phone&lt;/li&gt;&lt;li&gt;Gender&lt;/li&gt;&lt;li&gt;Email&lt;/li&gt;&lt;/ul&gt;" style="rounded=1;whiteSpace=wrap;html=1;align=left;fillColor=#dae8fc;strokeColor=#6c8ebf;" parent="1" vertex="1">
          <mxGeometry y="799" width="170" height="180" as="geometry" />
        </mxCell>
        <mxCell id="LbxbgSbXvP-pDpKZzsnc-8" value="CPF Objeto Valor&lt;br&gt;&lt;ul&gt;&lt;li&gt;Numero&lt;/li&gt;&lt;/ul&gt;" style="rounded=1;whiteSpace=wrap;html=1;align=left;fillColor=#dae8fc;strokeColor=#6c8ebf;" parent="1" vertex="1">
          <mxGeometry x="322" y="1067" width="200" height="60" as="geometry" />
        </mxCell>
        <mxCell id="jI8MqcMx82mhpwU4Yp7n-2" style="edgeStyle=orthogonalEdgeStyle;rounded=0;orthogonalLoop=1;jettySize=auto;html=1;strokeWidth=3;fillColor=#dae8fc;strokeColor=#6c8ebf;" edge="1" parent="1" source="LbxbgSbXvP-pDpKZzsnc-13" target="LbxbgSbXvP-pDpKZzsnc-14">
          <mxGeometry relative="1" as="geometry" />
        </mxCell>
        <mxCell id="jI8MqcMx82mhpwU4Yp7n-3" style="edgeStyle=orthogonalEdgeStyle;rounded=0;orthogonalLoop=1;jettySize=auto;html=1;strokeWidth=3;fillColor=#dae8fc;strokeColor=#6c8ebf;" edge="1" parent="1" source="LbxbgSbXvP-pDpKZzsnc-13" target="LbxbgSbXvP-pDpKZzsnc-15">
          <mxGeometry relative="1" as="geometry">
            <Array as="points">
              <mxPoint x="730" y="890" />
              <mxPoint x="730" y="960" />
            </Array>
          </mxGeometry>
        </mxCell>
        <mxCell id="LbxbgSbXvP-pDpKZzsnc-13" value="Address ValueObject&lt;br&gt;&lt;ul&gt;&lt;li&gt;CEP&lt;/li&gt;&lt;li&gt;State&lt;/li&gt;&lt;li&gt;City&lt;/li&gt;&lt;li&gt;Neighborhood&lt;/li&gt;&lt;li&gt;Street&lt;/li&gt;&lt;li&gt;Number&lt;/li&gt;&lt;li&gt;Complement&lt;/li&gt;&lt;li&gt;Geolocation&lt;/li&gt;&lt;/ul&gt;" style="rounded=1;whiteSpace=wrap;html=1;align=left;fillColor=#dae8fc;strokeColor=#6c8ebf;" parent="1" vertex="1">
          <mxGeometry x="430" y="760" width="200" height="210" as="geometry" />
        </mxCell>
        <mxCell id="LbxbgSbXvP-pDpKZzsnc-14" value="CEP Objeto Valor&lt;br&gt;&lt;ul&gt;&lt;li&gt;Number&lt;/li&gt;&lt;/ul&gt;" style="rounded=1;whiteSpace=wrap;html=1;align=left;fillColor=#dae8fc;strokeColor=#6c8ebf;" parent="1" vertex="1">
          <mxGeometry x="830" y="780" width="180" height="60" as="geometry" />
        </mxCell>
        <mxCell id="LbxbgSbXvP-pDpKZzsnc-15" value="Geolocation Objeto Valor&lt;br&gt;&lt;ul&gt;&lt;li&gt;Latitude&lt;/li&gt;&lt;li&gt;Longitude&lt;/li&gt;&lt;/ul&gt;" style="rounded=1;whiteSpace=wrap;html=1;align=left;fillColor=#dae8fc;strokeColor=#6c8ebf;" parent="1" vertex="1">
          <mxGeometry x="830" y="920" width="180" height="80" as="geometry" />
        </mxCell>
        <mxCell id="MBVvFbV_MtImAkybloSM-3" value="GetPersonQuery" style="rounded=1;whiteSpace=wrap;html=1;" vertex="1" parent="1">
          <mxGeometry x="160" y="160" width="180" height="40" as="geometry" />
        </mxCell>
        <mxCell id="MBVvFbV_MtImAkybloSM-4" value="GetPersonByIdQuery" style="rounded=1;whiteSpace=wrap;html=1;" vertex="1" parent="1">
          <mxGeometry x="160" y="210" width="180" height="40" as="geometry" />
        </mxCell>
        <mxCell id="J3bkx7PuBdJyIqofehbC-1" value="Commands" style="swimlane;whiteSpace=wrap;html=1;startSize=23;fillColor=#dae8fc;strokeColor=#6c8ebf;rounded=1;" vertex="1" parent="1">
          <mxGeometry x="370" y="120" width="290" height="490" as="geometry" />
        </mxCell>
        <mxCell id="J3bkx7PuBdJyIqofehbC-2" value="Person" style="swimlane;whiteSpace=wrap;html=1;startSize=23;fillColor=#dae8fc;strokeColor=#6c8ebf;rounded=1;" vertex="1" parent="J3bkx7PuBdJyIqofehbC-1">
          <mxGeometry x="11" y="50" width="259" height="190" as="geometry" />
        </mxCell>
        <mxCell id="liMRYJdqwD4BGUtcswJo-1" value="CreatePersonCommand" style="rounded=1;whiteSpace=wrap;html=1;" vertex="1" parent="J3bkx7PuBdJyIqofehbC-2">
          <mxGeometry x="20" y="40" width="220" height="40" as="geometry" />
        </mxCell>
        <mxCell id="liMRYJdqwD4BGUtcswJo-2" value="UpdatePersonCommand" style="rounded=1;whiteSpace=wrap;html=1;" vertex="1" parent="J3bkx7PuBdJyIqofehbC-2">
          <mxGeometry x="20" y="90" width="220" height="40" as="geometry" />
        </mxCell>
        <mxCell id="liMRYJdqwD4BGUtcswJo-3" value="DeletePersonCommand" style="rounded=1;whiteSpace=wrap;html=1;" vertex="1" parent="J3bkx7PuBdJyIqofehbC-2">
          <mxGeometry x="20" y="140" width="220" height="40" as="geometry" />
        </mxCell>
        <mxCell id="T-6b6cO7IrNeVoV2-WeD-1" value="User" style="swimlane;whiteSpace=wrap;html=1;startSize=23;fillColor=#d5e8d4;strokeColor=#82b366;rounded=1;" vertex="1" parent="1">
          <mxGeometry x="381" y="375" width="259" height="225" as="geometry" />
        </mxCell>
        <mxCell id="T-6b6cO7IrNeVoV2-WeD-2" value="CreateUserCommand" style="rounded=1;whiteSpace=wrap;html=1;" vertex="1" parent="T-6b6cO7IrNeVoV2-WeD-1">
          <mxGeometry x="20" y="30" width="220" height="40" as="geometry" />
        </mxCell>
        <mxCell id="T-6b6cO7IrNeVoV2-WeD-8" value="DeleteUserByPersonIdCommand" style="rounded=1;whiteSpace=wrap;html=1;" vertex="1" parent="1">
          <mxGeometry x="401" y="465" width="219" height="40" as="geometry" />
        </mxCell>
        <mxCell id="meLznbyOK8zg0Ix5pkp5-8" style="edgeStyle=orthogonalEdgeStyle;rounded=0;orthogonalLoop=1;jettySize=auto;html=1;entryX=0;entryY=0.5;entryDx=0;entryDy=0;strokeWidth=3;fillColor=#d5e8d4;strokeColor=#82b366;" edge="1" parent="1" source="YjScZczdsz7Mdr-TJw1g-1" target="meLznbyOK8zg0Ix5pkp5-6">
          <mxGeometry relative="1" as="geometry" />
        </mxCell>
        <mxCell id="YjScZczdsz7Mdr-TJw1g-1" value="DeleteUserCommand" style="rounded=1;whiteSpace=wrap;html=1;" vertex="1" parent="1">
          <mxGeometry x="401" y="525" width="219" height="40" as="geometry" />
        </mxCell>
        <mxCell id="meLznbyOK8zg0Ix5pkp5-4" value="Events" style="swimlane;whiteSpace=wrap;html=1;startSize=23;fillColor=#d5e8d4;strokeColor=#82b366;rounded=1;" vertex="1" parent="1">
          <mxGeometry x="960" y="390" width="200" height="200" as="geometry" />
        </mxCell>
        <mxCell id="meLznbyOK8zg0Ix5pkp5-5" value="UserCreatedEvent" style="rounded=1;whiteSpace=wrap;html=1;" vertex="1" parent="meLznbyOK8zg0Ix5pkp5-4">
          <mxGeometry x="10" y="40" width="180" height="40" as="geometry" />
        </mxCell>
        <mxCell id="meLznbyOK8zg0Ix5pkp5-6" value="UserDeletedEvent" style="rounded=1;whiteSpace=wrap;html=1;" vertex="1" parent="meLznbyOK8zg0Ix5pkp5-4">
          <mxGeometry x="10" y="100" width="180" height="40" as="geometry" />
        </mxCell>
        <mxCell id="meLznbyOK8zg0Ix5pkp5-7" style="edgeStyle=orthogonalEdgeStyle;rounded=0;orthogonalLoop=1;jettySize=auto;html=1;strokeWidth=3;fillColor=#d5e8d4;strokeColor=#82b366;" edge="1" parent="1" source="T-6b6cO7IrNeVoV2-WeD-2" target="meLznbyOK8zg0Ix5pkp5-5">
          <mxGeometry relative="1" as="geometry" />
        </mxCell>
        <mxCell id="VlSAxHMxIswQhX1spNsG-1" value="DeletePersonCommandEvent" style="rounded=1;whiteSpace=wrap;html=1;" vertex="1" parent="1">
          <mxGeometry x="970" y="260" width="180" height="40" as="geometry" />
        </mxCell>
        <mxCell id="VlSAxHMxIswQhX1spNsG-2" style="edgeStyle=orthogonalEdgeStyle;rounded=0;orthogonalLoop=1;jettySize=auto;html=1;entryX=0;entryY=0.5;entryDx=0;entryDy=0;strokeWidth=3;fillColor=#dae8fc;strokeColor=#6c8ebf;" edge="1" parent="1" source="liMRYJdqwD4BGUtcswJo-1" target="meLznbyOK8zg0Ix5pkp5-1">
          <mxGeometry relative="1" as="geometry" />
        </mxCell>
        <mxCell id="VlSAxHMxIswQhX1spNsG-3" style="edgeStyle=orthogonalEdgeStyle;rounded=0;orthogonalLoop=1;jettySize=auto;html=1;entryX=0;entryY=0.5;entryDx=0;entryDy=0;strokeWidth=3;fillColor=#dae8fc;strokeColor=#6c8ebf;" edge="1" parent="1" source="liMRYJdqwD4BGUtcswJo-2" target="meLznbyOK8zg0Ix5pkp5-2">
          <mxGeometry relative="1" as="geometry">
            <Array as="points">
              <mxPoint x="796" y="280" />
              <mxPoint x="796" y="250" />
              <mxPoint x="970" y="250" />
            </Array>
          </mxGeometry>
        </mxCell>
        <mxCell id="VlSAxHMxIswQhX1spNsG-5" style="edgeStyle=orthogonalEdgeStyle;rounded=0;orthogonalLoop=1;jettySize=auto;html=1;strokeWidth=3;fillColor=#dae8fc;strokeColor=#6c8ebf;" edge="1" parent="1" source="liMRYJdqwD4BGUtcswJo-3" target="VlSAxHMxIswQhX1spNsG-1">
          <mxGeometry relative="1" as="geometry">
            <Array as="points">
              <mxPoint x="690" y="330" />
              <mxPoint x="690" y="290" />
            </Array>
          </mxGeometry>
        </mxCell>
        <mxCell id="w_Y-t5pEsR0Due9AIpix-1" value="Email ValueObject&lt;br&gt;&lt;ul&gt;&lt;li&gt;Address&lt;br&gt;&lt;/li&gt;&lt;/ul&gt;" style="rounded=1;whiteSpace=wrap;html=1;align=left;fillColor=#dae8fc;strokeColor=#6c8ebf;" vertex="1" parent="1">
          <mxGeometry x="320" y="1160" width="200" height="60" as="geometry" />
        </mxCell>
        <mxCell id="w_Y-t5pEsR0Due9AIpix-2" value="PhoneNumber ValueObject&lt;br&gt;&lt;ul&gt;&lt;li&gt;Phone&lt;br&gt;&lt;/li&gt;&lt;/ul&gt;" style="rounded=1;whiteSpace=wrap;html=1;align=left;fillColor=#dae8fc;strokeColor=#6c8ebf;" vertex="1" parent="1">
          <mxGeometry x="320" y="1270" width="200" height="90" as="geometry" />
        </mxCell>
      </root>
    </mxGraphModel>
  </diagram>
</mxfile>
